<svg version="1.1" xmlns="http://www.w3.org/2000/svg" xmlns:xlink="http://www.w3.org/1999/xlink" width="108.07961" height="110.03593" viewBox="0,0,108.07961,110.03593"><g transform="translate(-186.13594,-124.62009)"><g data-paper-data="{&quot;isPaintingLayer&quot;:true}" fill-rule="nonzero" stroke-linejoin="miter" stroke-miterlimit="10" stroke-dasharray="" stroke-dashoffset="0" style="mix-blend-mode: normal"><g data-paper-data="{&quot;index&quot;:null}" fill="#949494" stroke="#000000" stroke-width="2"><path d="M204.16115,199.07059c0,0 -6.64286,-11.93942 -3.49459,-18.64127c1.13169,-2.40908 0.89596,-2.59479 2.69679,-6.62759c0.64865,-1.4526 1.4419,-2.94082 2.25333,-4.68416c2.17592,-4.67491 4.48262,-9.71385 4.48262,-9.71385c0,0 12.8362,2.13774 17.33941,2.13774c0.4348,0 21.53684,0.47359 21.97571,0.47078c10.74117,-0.06885 7.24001,-0.23325 7.24001,-0.23325c0,0 5.00242,-3.25087 6.6278,-2.9405c3.12122,0.596 6.09658,-2.66377 7.77886,2.9894c0.7907,2.65709 0.61267,2.95203 0.96648,6.59672c0.51648,5.32044 0.7566,13.44454 -1.04569,18.83477c-2.4256,7.25441 -7.20167,11.09865 -7.20167,11.09865z" stroke-linecap="butt"/><path d="M227.39986,198.12034c0,0 9.15072,-8.9704 8.79967,-18.34394c-0.36124,-4.29476 -5.1374,-13.07136 -5.1374,-13.07136l-4.03795,-4.98805l3.32537,4.27547c0,0 4.10165,-0.47068 6.34937,-0.72861c2.54497,-0.29205 8.13973,-0.93407 8.13973,-0.93407l-0.23753,-1.66268" stroke-linecap="round"/><path d="M256.71493,169.31783c0,0 3.11779,0.51281 5.78238,2.15324c3.24758,1.99934 6.16789,5.44311 6.30116,8.77418c0.13219,3.30408 -0.67646,8.08355 -3.45338,11.01242c-3.42658,3.61409 -9.1053,5.03108 -10.76089,4.83995c-4.48955,-0.51829 -8.18307,-8.6525 -8.46709,-10.60669c-0.78231,-5.3826 1.63974,-12.17764 2.58871,-13.45012c1.76938,-2.37258 8.00911,-2.72298 8.00911,-2.72298" stroke-linecap="round"/><path d="M206.59695,182.38177c0,-4.91169 3.12479,-7.68761 7.2084,-9.39624c1.2606,-0.52746 4.06037,-1.52997 5.49925,-1.52997c6.09996,0 10.09486,4.7358 10.09486,11.16373c0,6.42793 -5.65758,12.58889 -11.75755,12.58889c-6.09997,0 -11.04497,-6.3985 -11.04497,-12.82642z" stroke-linecap="butt"/></g><path d="M251.75308,202.93334l-1.18763,-15.20168c0,0 0.05333,-5.51103 1.7352,-6.53118c0.95481,-0.57916 4.04298,-2.93281 6.09158,-3.27646c2.5653,-0.43031 4.54981,1.89493 5.66353,2.33741c0.48628,0.1932 1.71137,4.38239 1.71137,4.38239c0,0 -0.13387,3.43598 -0.22249,5.71047c-0.13152,3.37576 -0.49009,12.57905 -0.49009,12.57905z" data-paper-data="{&quot;index&quot;:null}" fill="#949494" stroke="#000000" stroke-width="2.5" stroke-linecap="butt"/><path d="M209.06943,201.41739l0.94234,-15.21886c0,0 0.82078,-5.44982 2.6284,-6.22565c1.0262,-0.44046 4.41222,-2.3408 6.48872,-2.39562c2.60023,-0.06864 4.24135,2.51046 5.28255,3.10383c0.45461,0.25908 1.08398,4.57811 1.08398,4.57811c0,0 -0.61137,3.3838 -1.01608,5.62375c-0.60066,3.32449 -2.23822,12.38802 -2.23822,12.38802z" data-paper-data="{&quot;index&quot;:null}" fill="#949494" stroke="#000000" stroke-width="2.5" stroke-linecap="butt"/><g><path d="M205.28242,204.89647l3.15488,-5.03075l4.22583,2.6501l-3.15488,5.03075z" data-paper-data="{&quot;index&quot;:null}" fill="#000000" stroke="none" stroke-width="0" stroke-linecap="butt"/><path d="M214.31712,215.10739l-2.13774,4.513l-1.42516,4.513l-3.80042,2.37526l3.32537,0.71258l1.90021,1.90021l1.42516,0.9501l1.42516,2.13774l-3.80042,1.18763l-9.9761,-0.47505l-1.42516,-0.9501l-2.85031,-2.37526l-0.23753,-9.73857l7.36331,-7.83837z" fill="#949494" stroke="#000000" stroke-width="2.5" stroke-linecap="round"/><path d="M203.86596,211.06945l-0.47505,-4.513l2.37526,-2.13774h3.56289l3.32537,3.80042l2.37526,4.98805l-0.71258,1.90021z" fill="#242424" stroke="#000000" stroke-width="2.5" stroke-linecap="round"/><path d="M211.70433,207.50656l0.23753,2.61279l-3.56289,3.08784" fill="none" stroke="#000000" stroke-width="2.5" stroke-linecap="round"/><path d="M200.77566,232.95366c0,0 -3.92696,-5.47951 -4.08977,-6.61339c-0.22225,-1.54792 0.2115,-5.15825 0.2115,-5.15825c0,0 3.48362,-4.38078 5.0501,-5.90844c1.09318,-1.06609 3.45076,-2.38177 3.45076,-2.38177l7.36026,2.63241l-2.56639,7.74899l-4.99894,3.51524z" fill="#6e0000" stroke="none" stroke-width="NaN" stroke-linecap="butt"/><path d="M201.0151,214.69752l4.99187,-2.07857l7.06851,2.779l-1.36687,2.82857z" fill="#e30000" stroke="none" stroke-width="NaN" stroke-linecap="butt"/><path d="M210.6758,233.07814l-11.25551,-1.28042l-1.125,-5.625l7.32322,0.03095l3.06964,1.34575l3.39558,0.69924l0.91506,1.00548l1.29651,2.41859z" fill="#e30000" stroke="none" stroke-width="0" stroke-linecap="butt"/></g><g><path d="M263.9867,209.08468l-3.15488,-5.03075l4.22583,-2.6501l3.15488,5.03075z" fill="#000000" stroke="none" stroke-width="0" stroke-linecap="butt"/><path d="M285.53927,229.80727c0,0 0.07825,1.26575 -0.9562,1.3386c-2.71067,0.1909 -15.90816,-0.15097 -15.90816,-0.15097c0,0 -2.92101,-4.24242 -4.49322,-6.52587c-1.73675,-2.52242 -5.48288,-7.96323 -5.48288,-7.96323c0,0 7.01669,-2.18114 9.74102,-3.31952c1.05692,-0.44164 8.0137,8.73896 8.80524,8.70022c0.82275,-0.04027 -1.60082,2.84679 -1.52667,3.65287c0.08371,0.91014 2.63353,-0.2451 3.17013,-0.2451c1.5119,0 4.27547,0.47505 4.27547,0.47505l2.37526,4.03795z" fill="#949494" stroke="#000000" stroke-width="2.5" stroke-linecap="butt"/><path d="M257.03612,215.55569l5.70063,-8.55094l2.9246,-0.58112l2.44228,0.83612l1.52138,2.35779l-0.23753,3.32537z" fill="#242424" stroke="#000000" stroke-width="2.5" stroke-linecap="butt"/><path d="M263.92438,214.13053l-1.90021,-0.9501l-0.71258,-2.13774" fill="none" stroke="#000000" stroke-width="2.5" stroke-linecap="round"/><path d="M273.90047,230.63861l1.90021,-5.70063" fill="none" stroke="#000000" stroke-width="2.5" stroke-linecap="round"/><path d="M269.47037,231.31425c0,0 -1.49804,-3.29988 -2.7312,-4.84852c-1.87773,-2.3581 -6.77205,-8.92312 -6.77205,-8.92312l9.12586,-4.54021l1.36026,3.00741l5.18466,6.38923z" fill="#6e0000" stroke="none" stroke-width="NaN" stroke-linecap="butt"/><path d="M262.45981,220.55811l-2.25813,-3.20357l8.94351,-3.971l1.38313,3.20357z" fill="#e30000" stroke="none" stroke-width="NaN" stroke-linecap="butt"/><path d="M269.74001,230.53331l3.75,-10.25l2.25,2l0.19822,4.28095l3.06964,-0.27925l3.39558,0.69924l0.91506,1.00548l1.2965,2.41859z" fill="#e30000" stroke="none" stroke-width="0" stroke-linecap="butt"/></g><g data-paper-data="{&quot;index&quot;:null}" stroke="#000000" stroke-width="2" stroke-linecap="round"><path d="M187.37347,155.05599c0,0 9.8184,-0.36242 15.18081,1.85015c2.30639,0.95163 4.85845,2.69326 5.58793,4.05c0.84697,1.57526 -0.34964,2.71436 -0.73406,2.79699c-2.59296,0.55736 -7.71539,-0.49528 -9.77452,-1.34734c-3.60936,-1.49353 -10.49769,-7.34981 -10.49769,-7.34981" fill="#d8d8d8"/><path d="M204.47533,157.66876l-1.66268,5.93816" fill="none"/></g><path d="M263.60216,168.89203c-3.81575,-2.46488 -5.47012,-7.49986 -3.69514,-11.24596c1.77499,-3.7461 6.30718,-4.78473 10.12293,-2.31986c3.81575,2.46488 5.47012,7.49986 3.69514,11.24596c-1.77499,3.7461 -6.30718,4.78473 -10.12293,2.31986z" fill="none" stroke="#b90000" stroke-width="2.5" stroke-linecap="butt"/><g><g stroke="#000000" stroke-width="2.5"><path d="M261.48887,158.64721c0,0 0.38572,-1.48831 0.02088,-2.61271c-0.32634,-1.00569 -2.10731,-3.81738 -2.10731,-3.81738c0,0 -4.80181,-3.4026 -4.45048,-6.75239c0.03988,-0.38025 1.55492,-8.65615 6.39215,-13.30662c3.45744,-3.32395 10.46163,-3.61916 11.36288,-3.24656c0.69665,0.28802 5.09114,0.76773 9.14907,2.61307c5.71877,2.6006 11.008,6.50669 11.008,6.50669l-2.11548,13.60073l-20.88773,-0.2815l0.65373,7.36877z" fill="#949494" stroke-linecap="butt"/><path d="M291.99943,145.35156l-13.04265,-2.71708l-3.29869,-3.35183l-3.24556,-10.00235l11.13491,3.65197l8.74834,5.05811z" fill="#000000" stroke-linecap="round"/><path d="M276.35737,140.95097l-1.66263,-0.01328" fill="none" stroke-linecap="round"/><path d="M273.72568,143.3053l2.37329,0.2565" fill="none" stroke-linecap="round"/><path d="M274.41736,145.92371l-1.42322,-0.24891" fill="none" stroke-linecap="round"/><path d="M289.09531,151.61574c0,0 -12.48808,-0.49576 -18.92009,0.01613c-1.58255,0.12595 -0.22818,1.97755 -1.21403,1.98057c-8.73479,0.02681 -9.62276,-2.02785 -10.42246,-3.02569c-1.98624,-2.47836 -4.15225,-5.78591 -4.04059,-6.36903c0.14359,-0.74982 1.88895,-2.49851 1.88895,-2.49851l3.91187,1.56639l5.44774,1.9438l5.69096,1.23314l9.97388,0.31723l8.04147,4.33986" fill="#373737" stroke-linecap="round"/><path d="M288.74291,153.92669l-0.96905,2.36759l-12.35097,-0.09868l-2.60891,-0.49591l-0.93109,-2.38278l0.49022,-1.89635l1.19898,-1.41563l1.42132,0.48642l1.17621,1.4346l0.94058,1.19518z" fill="#000000" stroke-linecap="round"/><path d="M265.53808,157.25438l0.2584,-2.61081" fill="none" stroke-linecap="round"/><path d="M270.30743,154.91714l-8.54497,-0.78088" fill="none" stroke-linecap="round"/><path d="M265.02289,132.54675l-1.20467,2.12818l0.45795,2.14147l-3.54759,-1.92862l0.27358,-4.51096l3.35563,-3.77373l1.40993,1.91154l0.21095,3.32716z" fill="#151515" stroke-linecap="round"/><path d="M265.70602,136.23593l-3.32906,0.44847l-1.63606,-3.33855l0.96146,-1.41752l2.39226,-2.11869l1.90205,-0.22234l1.18,0.95956l1.1781,1.19708l0.45416,2.6165z" fill="none" stroke-linecap="round"/></g><g fill="#54ff00" stroke="none" stroke-linecap="butt"><path d="M286.68295,135.36055c2.56247,0.77602 3.1525,2.28665 2.72769,4.09277c-0.42481,1.80612 -2.33479,2.90204 -4.26607,2.44778c-1.93127,-0.45425 -3.1525,-2.28665 -2.72769,-4.09277c0.42481,-1.80612 1.62658,-3.24712 4.26607,-2.44778z" stroke-width="0"/><path d="M277.06215,137.38686c-0.99474,0.10249 -1.09723,-0.89225 -1.09723,-0.89225l-0.02355,-1.38205c0.61786,-1.50625 1.17388,-2.6614 2.3942,-3.75701c0,0 0.75269,-0.65837 1.41106,0.09433c0.65837,0.75269 -0.09433,1.41106 -0.09433,1.41106c-1.00404,0.8472 -1.37034,1.81004 -1.85999,3.00922l0.16206,0.41949c0,0 0.10249,0.99474 -0.89225,1.09723z" stroke-width="0.5"/></g></g></g></g></svg>